<?xml version="1.0" standalone="no"?>
<!DOCTYPE svg PUBLIC "-//W3C//DTD SVG 20010904//EN"
 "http://www.w3.org/TR/2001/REC-SVG-20010904/DTD/svg10.dtd">
<svg version="1.0" xmlns="http://www.w3.org/2000/svg"
 width="512.000000pt" height="512.000000pt" viewBox="0 0 512.000000 512.000000"
 preserveAspectRatio="xMidYMid meet">

<g transform="translate(0.000000,512.000000) scale(0.100000,-0.100000)"
fill="#000000" stroke="none">
<path d="M2396 5104 c-288 -52 -549 -270 -657 -548 -49 -125 -59 -218 -59
-522 l0 -274 -480 0 -480 0 0 -1880 0 -1880 1840 0 1840 0 0 1880 0 1880 -480
0 -480 0 0 274 c0 307 -11 399 -61 525 -158 395 -564 621 -983 545z m379 -178
c113 -36 198 -89 290 -181 91 -91 144 -175 182 -290 26 -78 27 -86 31 -387 l4
-308 -722 0 -722 0 4 308 c4 301 5 309 31 387 38 115 91 199 182 290 112 112
235 179 379 205 89 16 251 5 341 -24z m-1095 -1526 l0 -200 80 0 80 0 0 200 0
200 720 0 720 0 0 -200 0 -200 80 0 80 0 0 200 0 200 400 0 400 0 0 -1720 0
-1720 -1680 0 -1680 0 0 1720 0 1720 400 0 400 0 0 -200z"/>
<path d="M2888 1963 l-488 -488 -248 248 c-136 136 -252 247 -257 247 -13 0
-105 -92 -105 -105 0 -6 125 -135 278 -288 l277 -277 55 0 55 0 518 518 c284
284 517 522 517 527 0 13 -92 105 -105 105 -6 0 -229 -219 -497 -487z"/>
</g>
</svg>
